<svg width="248" height="48" viewBox="0 0 248 48" fill="none" xmlns="http://www.w3.org/2000/svg">
<path d="M50.5752 17.5406C50.5752 16.797 50.976 16.3439 51.7777 16.1812L52.5272 16.0418C52.6085 16.0185 52.6782 16.0069 52.7363 16.0069C52.806 16.0069 52.8699 16.0069 52.928 16.0069C53.6368 16.0069 54.0551 16.4136 54.1829 17.2269C54.2294 17.622 54.2875 18.1216 54.3572 18.7258C54.4269 19.33 54.5141 19.9923 54.6186 20.7127C54.7348 21.4331 54.8626 22.1883 55.0021 22.9784C55.1531 23.7685 55.3216 24.547 55.5075 25.3139C55.6934 26.0691 55.9026 26.7895 56.1349 27.4751C56.3673 28.1606 56.6288 28.7648 56.9192 29.2877C57.2097 29.8105 57.5234 30.2288 57.8604 30.5425C58.209 30.8446 58.5866 30.9957 58.9933 30.9957C59.2837 30.9957 59.5742 30.9085 59.8647 30.7343C60.1668 30.56 60.4631 30.3334 60.7536 30.0545C61.0441 29.764 61.3229 29.4387 61.5902 29.0785C61.8574 28.7183 62.1014 28.3523 62.3222 27.9805C62.5429 27.6087 62.7405 27.2543 62.9148 26.9173C63.1007 26.5688 63.2459 26.2667 63.3505 26.011C63.4202 25.7903 63.455 25.5869 63.455 25.401C63.455 25.3081 63.4492 25.2151 63.4376 25.1222C63.426 25.0292 63.4086 24.9305 63.3853 24.8259C63.1646 24.1055 62.9961 23.3851 62.8799 22.6647C62.7637 21.9443 62.7056 21.1658 62.7056 20.3292C62.7056 19.8412 62.7463 19.359 62.8276 18.8827C62.9089 18.4063 63.0484 17.9705 63.2459 17.5755C63.3505 17.3664 63.5073 17.1863 63.7165 17.0352C63.9256 16.8842 64.1522 16.7622 64.3962 16.6692C64.6518 16.5762 64.9133 16.5123 65.1805 16.4775C65.4594 16.431 65.715 16.4078 65.9474 16.4078C66.203 16.4078 66.4354 16.4601 66.6445 16.5646C66.8537 16.6576 67.0396 16.8202 67.2022 17.0526C67.5276 17.4942 67.7542 17.9996 67.882 18.5689C68.0214 19.1383 68.0911 19.7134 68.0911 20.2944C68.0911 20.9218 68.033 21.5667 67.9168 22.229C67.8006 22.8797 67.6612 23.5303 67.4985 24.181C67.4172 24.3437 67.3765 24.5238 67.3765 24.7213C67.3765 24.8143 67.3881 24.913 67.4114 25.0176C67.4462 25.1222 67.4869 25.2384 67.5334 25.3662C67.7425 25.9123 67.9865 26.47 68.2654 27.0393C68.5559 27.5971 68.887 28.1025 69.2588 28.5557C69.6307 29.0088 70.0489 29.3806 70.5137 29.6711C70.9785 29.9616 71.5072 30.1068 72.0997 30.1068C72.6226 30.1068 73.0932 29.8861 73.5115 29.4445C73.9298 29.003 74.2783 28.4453 74.5572 27.7714C74.8477 27.0974 75.0684 26.3654 75.2195 25.5753C75.3705 24.7736 75.4461 24.0125 75.4461 23.2921C75.4461 22.5253 75.417 21.77 75.3589 21.0264C75.3008 20.2828 75.2253 19.5972 75.1324 18.9698C75.1091 18.9117 75.0975 18.8536 75.0975 18.7955C75.0975 18.7374 75.0975 18.6793 75.0975 18.6212C75.0975 17.9589 75.4519 17.5058 76.1607 17.2618L76.945 17.0003C77.1657 16.9306 77.3691 16.8958 77.555 16.8958C78.1708 16.8958 78.5426 17.2792 78.6704 18.0461C78.7982 18.7665 78.897 19.4869 78.9667 20.2072C79.048 20.9276 79.0887 21.648 79.0887 22.3684C79.0887 23.9022 78.9086 25.3429 78.5484 26.6908C78.1882 28.0386 77.6828 29.2179 77.0321 30.2288C76.393 31.2281 75.632 32.0182 74.7489 32.5991C73.8659 33.1801 72.8957 33.4706 71.8383 33.4706C70.8042 33.4706 69.7643 33.1627 68.7185 32.5469C67.6728 31.9194 66.7259 30.926 65.8777 29.5665C65.715 29.2644 65.5291 29.1134 65.3199 29.1134C65.1224 29.1134 64.9423 29.2644 64.7796 29.5665C64.373 30.2869 63.9256 30.955 63.4376 31.5708C62.9496 32.175 62.4326 32.6979 61.8865 33.1394C61.3404 33.581 60.771 33.9237 60.1784 34.1677C59.5858 34.4117 58.9875 34.5337 58.3833 34.5337C57.4072 34.5337 56.5474 34.2665 55.8038 33.732C55.0718 33.2091 54.4327 32.5062 53.8866 31.6231C53.3521 30.7401 52.899 29.7292 52.5272 28.5905C52.1554 27.4402 51.8416 26.2492 51.586 25.0176C51.342 23.7743 51.1387 22.5311 50.976 21.2878C50.825 20.0446 50.6913 18.8827 50.5752 17.8021V17.5406ZM92.7529 17.7672C93.3919 17.7672 94.0078 17.866 94.6003 18.0635C95.1929 18.261 95.7158 18.5341 96.1689 18.8827C96.6221 19.2312 96.9823 19.6495 97.2495 20.1375C97.5284 20.6255 97.6678 21.1658 97.6678 21.7584C97.6678 22.0024 97.6097 22.2406 97.4935 22.473C97.389 22.6938 97.2437 22.8913 97.0578 23.0656C96.8719 23.2282 96.6569 23.3619 96.4129 23.4664C96.1806 23.5594 95.9366 23.6059 95.6809 23.6059C95.6577 23.6059 95.6345 23.6117 95.6112 23.6233C95.5996 23.6233 95.5822 23.6233 95.5589 23.6233C95.5357 23.6349 95.5125 23.6407 95.4892 23.6407L95.5589 25.035C95.6054 26.6966 95.8378 27.9108 96.2561 28.6777C96.686 29.4445 97.2437 29.828 97.9292 29.828C98.1733 29.828 98.3882 29.8047 98.5741 29.7582C98.7716 29.7118 98.9517 29.6595 99.1144 29.6014C99.2887 29.5317 99.4514 29.4736 99.6024 29.4271C99.7535 29.3806 99.9045 29.3574 100.056 29.3574C100.323 29.3574 100.555 29.4736 100.753 29.706C100.962 29.9383 101.066 30.2172 101.066 30.5425C101.066 30.8679 100.939 31.1932 100.683 31.5186C100.439 31.8439 100.114 32.1402 99.707 32.4074C99.3003 32.663 98.8414 32.8722 98.3301 33.0349C97.8189 33.1975 97.3018 33.2789 96.7789 33.2789C95.8726 33.2789 95.0767 32.907 94.3912 32.1634C93.7057 31.4082 93.2177 30.3043 92.9272 28.8519C92.8575 28.6196 92.7645 28.5034 92.6483 28.5034C92.5089 28.5034 92.3869 28.5731 92.2823 28.7125C91.132 30.1649 89.9062 31.2571 88.6048 31.9891C87.3035 32.7095 86.0196 33.0697 84.7531 33.0697C84.1605 33.0697 83.626 32.9826 83.1496 32.8083C82.6732 32.634 82.2666 32.39 81.9296 32.0763C81.6043 31.7509 81.3486 31.3617 81.1627 30.9085C80.9884 30.4438 80.9013 29.9267 80.9013 29.3574C80.9013 28.5557 81.0756 27.7133 81.4242 26.8302C81.7844 25.9471 82.2666 25.0757 82.8707 24.2159C83.4749 23.3561 84.1721 22.5369 84.9622 21.7584C85.7639 20.9799 86.6005 20.2944 87.472 19.7018C88.355 19.1092 89.2497 18.6387 90.156 18.2901C91.0623 17.9415 91.9279 17.7672 92.7529 17.7672ZM92.1777 23.7976C92.3869 23.4025 92.5786 23.1179 92.7529 22.9436C92.9272 22.7577 93.177 22.6357 93.5023 22.5776C93.758 22.5427 93.8858 22.4614 93.8858 22.3336C93.8858 22.2406 93.8509 22.1418 93.7812 22.0373C93.5604 21.7352 93.328 21.4737 93.084 21.253C92.84 21.0206 92.5147 20.9044 92.108 20.9044C91.6665 20.9044 91.1727 21.0322 90.6266 21.2878C90.0805 21.5435 89.5227 21.8862 88.9534 22.3161C88.3957 22.7344 87.8438 23.2166 87.2977 23.7627C86.7632 24.2972 86.2868 24.8491 85.8685 25.4185C85.4502 25.9878 85.1133 26.5513 84.8576 27.1091C84.602 27.6668 84.4742 28.1664 84.4742 28.6079C84.4742 29.003 84.5788 29.3109 84.7879 29.5317C85.0087 29.7524 85.305 29.8628 85.6768 29.8628C86.6296 29.8628 87.6695 29.3574 88.7965 28.3465C89.9236 27.3356 91.0507 25.8193 92.1777 23.7976ZM101.938 18.9349C101.938 18.7607 102.013 18.5922 102.164 18.4295C102.315 18.2552 102.513 18.1042 102.757 17.9764C103.001 17.8369 103.274 17.7265 103.576 17.6452C103.89 17.5523 104.204 17.5058 104.517 17.5058C104.692 17.5058 104.837 17.5523 104.953 17.6452C105.081 17.7382 105.191 17.9183 105.284 18.1855C105.377 18.4411 105.458 18.8071 105.528 19.2835C105.61 19.7483 105.685 20.3583 105.755 21.1135C105.801 21.3459 105.842 21.526 105.877 21.6538C105.923 21.77 105.981 21.8281 106.051 21.8281C106.156 21.8281 106.26 21.648 106.365 21.2878C107.213 18.8362 108.439 17.6104 110.042 17.6104C110.786 17.6104 111.46 17.8427 112.064 18.3075C112.68 18.7723 113.249 19.5333 113.772 20.5907C114.307 21.6364 114.812 23.0191 115.288 24.7387C115.765 26.4468 116.241 28.5557 116.718 31.0654C116.741 31.1932 116.758 31.3094 116.77 31.414C116.781 31.5186 116.787 31.6173 116.787 31.7103C116.787 31.9775 116.723 32.2099 116.596 32.4074C116.479 32.5933 116.322 32.7502 116.125 32.878C115.927 32.9942 115.707 33.0813 115.463 33.1394C115.219 33.2091 114.975 33.244 114.731 33.244C114.243 33.244 113.888 33.1917 113.667 33.0871C113.458 32.9826 113.325 32.785 113.267 32.4946C112.93 30.7284 112.599 29.1599 112.273 27.7888C111.959 26.4177 111.646 25.2674 111.332 24.3379C111.03 23.3967 110.728 22.6821 110.426 22.1941C110.124 21.7061 109.822 21.4621 109.519 21.4621C109.217 21.4621 108.933 21.6538 108.665 22.0373C108.41 22.4091 108.16 22.9959 107.916 23.7976C107.672 24.5993 107.434 25.616 107.201 26.8476C106.981 28.0793 106.766 29.5491 106.557 31.2571C106.498 31.7219 106.266 32.0937 105.859 32.3726C105.453 32.6514 104.936 32.7909 104.308 32.7909C103.89 32.7909 103.57 32.7037 103.35 32.5294C103.129 32.3551 103.007 32.1169 102.984 31.8148C102.879 29.398 102.763 27.4112 102.635 25.8542C102.519 24.2856 102.408 23.0307 102.304 22.0896C102.199 21.1368 102.112 20.428 102.042 19.9632C101.973 19.4985 101.938 19.1557 101.938 18.9349ZM130.277 20.2595C130.324 20.2828 130.393 20.2944 130.486 20.2944C130.742 20.2944 130.87 20.1259 130.87 19.789V14.3686C130.87 13.6831 131.021 13.1951 131.323 12.9046C131.637 12.6141 132.154 12.4689 132.874 12.4689C133.606 12.4689 134.123 12.6199 134.425 12.922C134.727 13.2241 134.878 13.7412 134.878 14.4732C134.878 14.752 134.861 15.1645 134.826 15.7106C134.791 16.2451 134.751 16.8551 134.704 17.5406C134.669 18.2262 134.634 18.964 134.599 19.7541C134.565 20.5326 134.547 21.3053 134.547 22.0721C134.547 23.2573 134.629 24.2798 134.791 25.1396C134.954 25.9994 135.186 26.714 135.488 27.2833C135.79 27.8411 136.151 28.2594 136.569 28.5382C136.987 28.8055 137.458 28.9391 137.981 28.9391C138.271 28.9391 138.533 28.9042 138.765 28.8345C139.009 28.7532 139.294 28.7125 139.619 28.7125C139.851 28.7125 140.043 28.8345 140.194 29.0785C140.357 29.3109 140.438 29.5956 140.438 29.9325C140.438 30.2346 140.345 30.5193 140.159 30.7865C139.985 31.0538 139.741 31.2862 139.427 31.4837C139.125 31.6812 138.771 31.8381 138.364 31.9543C137.957 32.0588 137.533 32.1111 137.092 32.1111C136.139 32.1111 135.268 31.8207 134.477 31.2397C133.687 30.6471 133.095 29.7466 132.7 28.5382C132.665 28.3523 132.607 28.2594 132.525 28.2594C132.432 28.2594 132.357 28.3523 132.299 28.5382C131.985 29.3864 131.573 30.1533 131.061 30.8388C130.562 31.5127 129.975 32.0937 129.301 32.5817C128.639 33.0581 127.907 33.4241 127.105 33.6797C126.315 33.9353 125.478 34.0632 124.595 34.0632C123.666 34.0632 122.812 33.9063 122.033 33.5926C121.266 33.2905 120.604 32.8664 120.046 32.3203C119.489 31.7626 119.053 31.1119 118.739 30.3682C118.426 29.613 118.269 28.7997 118.269 27.9282C118.269 26.8128 118.501 25.7612 118.966 24.7736C119.431 23.786 120.058 22.9261 120.848 22.1941C121.65 21.4505 122.579 20.8637 123.637 20.4338C124.694 20.0039 125.821 19.789 127.018 19.789C127.506 19.789 128.023 19.8296 128.569 19.911C129.115 19.9807 129.685 20.0969 130.277 20.2595ZM125.275 30.926C125.937 30.926 126.524 30.7807 127.035 30.4903C127.558 30.1998 128.017 29.8338 128.412 29.3922C128.819 28.9391 129.162 28.4453 129.441 27.9108C129.719 27.3647 129.946 26.836 130.12 26.3248C130.295 25.8135 130.422 25.3546 130.504 24.9479C130.585 24.5412 130.626 24.2507 130.626 24.0764C130.626 23.9486 130.591 23.8383 130.521 23.7453C130.451 23.6407 130.347 23.5594 130.207 23.5013C129.894 23.42 129.568 23.3502 129.231 23.2921C128.894 23.2224 128.563 23.1643 128.238 23.1179C127.913 23.0714 127.599 23.0365 127.297 23.0133C127.006 22.99 126.739 22.9784 126.495 22.9784C125.798 22.9784 125.165 23.083 124.595 23.2921C124.026 23.5013 123.538 23.7976 123.131 24.181C122.736 24.5645 122.428 25.0234 122.208 25.5579C121.987 26.0808 121.876 26.6559 121.876 27.2833C121.876 27.8411 121.958 28.3465 122.12 28.7997C122.295 29.2412 122.527 29.6188 122.818 29.9325C123.12 30.2462 123.48 30.4903 123.898 30.6645C124.316 30.8388 124.775 30.926 125.275 30.926ZM154.364 29.1831C154.701 28.8926 155.032 28.7474 155.357 28.7474C155.543 28.7474 155.712 28.7938 155.863 28.8868C156.014 28.9798 156.182 29.125 156.368 29.3225C156.542 29.5898 156.664 29.8105 156.734 29.9848C156.815 30.1475 156.856 30.3102 156.856 30.4728C156.856 30.8214 156.682 31.1525 156.333 31.4663C155.775 31.931 155.171 32.3493 154.521 32.7211C153.87 33.0813 153.19 33.3892 152.481 33.6449C151.773 33.9005 151.041 34.0922 150.285 34.22C149.53 34.3594 148.781 34.4292 148.037 34.4292C147.096 34.4292 146.213 34.3072 145.388 34.0632C144.563 33.8308 143.825 33.4938 143.174 33.0523C142.535 32.6108 141.995 32.0821 141.554 31.4663C141.112 30.8388 140.798 30.1359 140.612 29.3574C140.508 29.032 140.409 28.8229 140.316 28.7299C140.235 28.6254 140.095 28.5731 139.898 28.5731C139.468 28.5731 139.137 28.4685 138.904 28.2594C138.672 28.0502 138.556 27.7481 138.556 27.3531C138.556 27.1904 138.567 27.0858 138.591 27.0393L138.626 26.6908C138.684 26.2725 138.794 25.9704 138.957 25.7845C139.131 25.5986 139.398 25.5056 139.758 25.5056H140.02C140.508 25.5056 140.851 25.279 141.048 24.8259C141.408 24.0242 141.867 23.2921 142.425 22.6299C142.983 21.9676 143.61 21.404 144.307 20.9393C145.004 20.4629 145.748 20.0969 146.538 19.8412C147.34 19.574 148.153 19.4404 148.978 19.4404C149.838 19.4404 150.64 19.5682 151.383 19.8238C152.139 20.0678 152.795 20.4106 153.353 20.8521C153.911 21.2936 154.346 21.8107 154.66 22.4033C154.985 22.9959 155.148 23.6349 155.148 24.3204C155.148 24.7968 155.055 25.2326 154.869 25.6276C154.683 26.0227 154.416 26.3712 154.067 26.6733C153.719 26.9638 153.295 27.202 152.795 27.3879C152.307 27.5738 151.749 27.6958 151.122 27.7539L145.074 28.3639C144.842 28.3639 144.65 28.422 144.499 28.5382C144.36 28.6544 144.29 28.8113 144.29 29.0088C144.29 29.3109 144.4 29.6014 144.621 29.8802C144.853 30.1591 145.156 30.4089 145.527 30.6297C145.911 30.8388 146.347 31.0073 146.835 31.1351C147.334 31.2629 147.845 31.3268 148.368 31.3268C148.868 31.3268 149.379 31.2804 149.902 31.1874C150.436 31.0828 150.959 30.9376 151.471 30.7517C151.993 30.5658 152.499 30.345 152.987 30.0894C153.475 29.8221 153.934 29.52 154.364 29.1831ZM150.477 24.6865C150.651 24.6516 150.802 24.5703 150.93 24.4425C151.058 24.303 151.122 24.1345 151.122 23.937C151.122 23.7627 151.058 23.6001 150.93 23.449C150.802 23.298 150.628 23.1643 150.407 23.0481C150.187 22.9203 149.931 22.8216 149.641 22.7519C149.35 22.6821 149.042 22.6473 148.717 22.6473C148.24 22.6473 147.752 22.717 147.253 22.8564C146.753 22.9959 146.3 23.1818 145.893 23.4142C145.487 23.6349 145.156 23.8847 144.9 24.1636C144.644 24.4308 144.516 24.6981 144.516 24.9653C144.516 25.2326 144.679 25.3662 145.004 25.3662C145.202 25.3662 145.522 25.3429 145.963 25.2965C146.405 25.25 146.893 25.1977 147.427 25.1396C147.962 25.0699 148.502 24.9944 149.048 24.913C149.594 24.8317 150.07 24.7562 150.477 24.6865ZM167.418 19.9632C166.988 19.9632 166.61 20.0794 166.285 20.3118C165.96 20.5326 165.681 20.8463 165.448 21.253C165.216 21.648 165.024 22.1186 164.873 22.6647C164.722 23.1992 164.6 23.786 164.507 24.425C164.414 25.0641 164.35 25.7322 164.316 26.4293C164.281 27.1265 164.263 27.8295 164.263 28.5382C164.263 29.4678 164.298 30.3857 164.368 31.292C164.449 32.1867 164.49 33.0174 164.49 33.7843C164.49 34.2839 164.304 34.6732 163.932 34.952C163.56 35.2425 163.032 35.3877 162.346 35.3877C162.218 35.3877 162.073 35.3761 161.91 35.3529C161.748 35.3297 161.591 35.2832 161.44 35.2135C161.3 35.1437 161.173 35.045 161.056 34.9172C160.952 34.801 160.894 34.6383 160.882 34.4292C160.778 33.4067 160.627 32.3609 160.429 31.292C160.231 30.223 159.982 29.1599 159.68 28.1025C159.389 27.0335 159.035 25.9762 158.616 24.9305C158.21 23.8847 157.739 22.8622 157.205 21.863C157.112 21.6887 157.03 21.526 156.961 21.375C156.903 21.2239 156.874 21.0787 156.874 20.9393C156.874 20.765 156.949 20.5791 157.1 20.3815C157.263 20.1724 157.46 19.9807 157.693 19.8064C157.937 19.6321 158.198 19.4927 158.477 19.3881C158.767 19.2719 159.046 19.2138 159.314 19.2138C159.755 19.2138 160.144 19.5217 160.481 20.1375C160.818 20.7417 161.132 21.7119 161.422 23.0481C161.481 23.2805 161.527 23.4432 161.562 23.5362C161.597 23.6291 161.643 23.6756 161.701 23.6756C161.829 23.6756 161.91 23.4781 161.945 23.083C162.085 21.9792 162.323 21.0322 162.66 20.2421C162.997 19.4404 163.415 18.7839 163.915 18.2726C164.426 17.7498 165.007 17.3664 165.658 17.1223C166.32 16.8783 167.046 16.7563 167.836 16.7563C168.289 16.7563 168.748 16.797 169.213 16.8783C169.678 16.9597 170.096 17.0817 170.468 17.2443C170.84 17.407 171.142 17.6045 171.374 17.8369C171.607 18.0693 171.723 18.3307 171.723 18.6212C171.723 18.8304 171.676 19.0802 171.583 19.3707C171.502 19.6495 171.392 19.9226 171.252 20.1898C171.113 20.4454 170.95 20.6662 170.764 20.8521C170.59 21.0264 170.41 21.1135 170.224 21.1135C170.015 21.1135 169.812 21.0555 169.614 20.9393C169.416 20.8114 169.201 20.6778 168.969 20.5384C168.748 20.399 168.51 20.2712 168.255 20.155C168.011 20.0272 167.732 19.9632 167.418 19.9632ZM187.531 23.5013C187.391 23.5013 187.269 23.6117 187.165 23.8324C186.723 24.6923 186.253 25.4708 185.753 26.1679C185.265 26.8651 184.771 27.4576 184.272 27.9456C183.772 28.4336 183.278 28.8113 182.79 29.0785C182.302 29.3341 181.843 29.462 181.413 29.462C180.995 29.462 180.606 29.3748 180.246 29.2005C179.897 29.0146 179.514 28.6718 179.095 28.1722C178.689 27.6726 178.218 26.9812 177.684 26.0982C177.161 25.2151 176.516 24.0648 175.749 22.6473C175.621 22.4149 175.487 22.2464 175.348 22.1418C175.22 22.0257 175.104 21.9676 174.999 21.9676C174.848 21.9676 174.709 22.1302 174.581 22.4556C174.453 22.7693 174.343 23.2166 174.25 23.7976C174.157 24.3669 174.082 25.0583 174.023 25.8716C173.977 26.6733 173.954 27.5622 173.954 28.5382C173.954 29.1192 173.983 29.7001 174.041 30.2811C174.111 30.8621 174.145 31.4605 174.145 32.0763C174.145 32.2854 174.087 32.4829 173.971 32.6689C173.855 32.8431 173.698 32.9942 173.501 33.122C173.315 33.2614 173.088 33.3718 172.821 33.4531C172.565 33.5345 172.292 33.5752 172.002 33.5752C171.421 33.5752 171.002 33.2266 170.747 32.5294C170.491 31.8323 170.363 30.7168 170.363 29.1831C170.363 27.2427 170.468 25.4824 170.677 23.9022C170.898 22.3103 171.206 20.9509 171.601 19.8238C172.008 18.6851 172.484 17.8079 173.03 17.1921C173.588 16.5646 174.209 16.2509 174.895 16.2509C175.499 16.2509 176.074 16.5995 176.62 17.2966C177.178 17.9822 177.776 19.0976 178.416 20.643C178.671 21.2704 178.944 21.8572 179.235 22.4033C179.537 22.9494 179.833 23.4258 180.124 23.8324C180.426 24.2275 180.716 24.5412 180.995 24.7736C181.274 24.9944 181.524 25.1047 181.744 25.1047C181.965 25.1047 182.174 25.0583 182.372 24.9653C182.581 24.8607 182.813 24.6458 183.069 24.3204C183.336 23.9835 183.644 23.4955 183.993 22.8564C184.353 22.2174 184.794 21.3634 185.317 20.2944C185.596 19.7367 185.846 19.2719 186.067 18.9001C186.288 18.5283 186.508 18.232 186.729 18.0112C186.95 17.7788 187.182 17.6162 187.426 17.5232C187.67 17.4186 187.943 17.3664 188.245 17.3664C188.606 17.3664 188.96 17.5581 189.309 17.9415C189.657 18.3249 189.994 18.8362 190.319 19.4752C190.656 20.1143 190.982 20.8579 191.295 21.7061C191.609 22.5543 191.911 23.4432 192.202 24.3727C192.504 25.3023 192.794 26.2492 193.073 27.2136C193.364 28.1664 193.643 29.0727 193.91 29.9325C193.979 30.1882 194.026 30.3682 194.049 30.4728C194.084 30.5658 194.101 30.682 194.101 30.8214C194.101 31.0189 194.038 31.2165 193.91 31.414C193.794 31.5999 193.637 31.7684 193.439 31.9194C193.242 32.0705 193.015 32.1925 192.759 32.2854C192.515 32.3784 192.271 32.4248 192.027 32.4248C191.702 32.4248 191.446 32.39 191.261 32.3203C191.086 32.2389 190.947 32.0995 190.842 31.902C190.784 31.7974 190.685 31.5186 190.546 31.0654C190.407 30.6123 190.238 30.0778 190.041 29.462C189.855 28.8345 189.645 28.1722 189.413 27.4751C189.192 26.7779 188.966 26.1389 188.733 25.5579C188.513 24.9653 188.298 24.4773 188.089 24.0939C187.879 23.6988 187.693 23.5013 187.531 23.5013ZM206.354 17.7672C206.993 17.7672 207.609 17.866 208.201 18.0635C208.794 18.261 209.317 18.5341 209.77 18.8827C210.223 19.2312 210.583 19.6495 210.851 20.1375C211.129 20.6255 211.269 21.1658 211.269 21.7584C211.269 22.0024 211.211 22.2406 211.095 22.473C210.99 22.6938 210.845 22.8913 210.659 23.0656C210.473 23.2282 210.258 23.3619 210.014 23.4664C209.782 23.5594 209.538 23.6059 209.282 23.6059C209.259 23.6059 209.235 23.6117 209.212 23.6233C209.201 23.6233 209.183 23.6233 209.16 23.6233C209.137 23.6349 209.113 23.6407 209.09 23.6407L209.16 25.035C209.206 26.6966 209.439 27.9108 209.857 28.6777C210.287 29.4445 210.845 29.828 211.53 29.828C211.774 29.828 211.989 29.8047 212.175 29.7582C212.373 29.7118 212.553 29.6595 212.715 29.6014C212.89 29.5317 213.052 29.4736 213.203 29.4271C213.355 29.3806 213.506 29.3574 213.657 29.3574C213.924 29.3574 214.156 29.4736 214.354 29.706C214.563 29.9383 214.667 30.2172 214.667 30.5425C214.667 30.8679 214.54 31.1932 214.284 31.5186C214.04 31.8439 213.715 32.1402 213.308 32.4074C212.901 32.663 212.442 32.8722 211.931 33.0349C211.42 33.1975 210.903 33.2789 210.38 33.2789C209.474 33.2789 208.678 32.907 207.992 32.1634C207.307 31.4082 206.819 30.3043 206.528 28.8519C206.458 28.6196 206.366 28.5034 206.249 28.5034C206.11 28.5034 205.988 28.5731 205.883 28.7125C204.733 30.1649 203.507 31.2571 202.206 31.9891C200.905 32.7095 199.621 33.0697 198.354 33.0697C197.762 33.0697 197.227 32.9826 196.751 32.8083C196.274 32.634 195.868 32.39 195.531 32.0763C195.205 31.7509 194.95 31.3617 194.764 30.9085C194.589 30.4438 194.502 29.9267 194.502 29.3574C194.502 28.5557 194.677 27.7133 195.025 26.8302C195.385 25.9471 195.868 25.0757 196.472 24.2159C197.076 23.3561 197.773 22.5369 198.563 21.7584C199.365 20.9799 200.202 20.2944 201.073 19.7018C201.956 19.1092 202.851 18.6387 203.757 18.2901C204.663 17.9415 205.529 17.7672 206.354 17.7672ZM205.779 23.7976C205.988 23.4025 206.18 23.1179 206.354 22.9436C206.528 22.7577 206.778 22.6357 207.103 22.5776C207.359 22.5427 207.487 22.4614 207.487 22.3336C207.487 22.2406 207.452 22.1418 207.382 22.0373C207.161 21.7352 206.929 21.4737 206.685 21.253C206.441 21.0206 206.116 20.9044 205.709 20.9044C205.268 20.9044 204.774 21.0322 204.228 21.2878C203.682 21.5435 203.124 21.8862 202.554 22.3161C201.997 22.7344 201.445 23.2166 200.899 23.7627C200.364 24.2972 199.888 24.8491 199.47 25.4185C199.051 25.9878 198.714 26.5513 198.459 27.1091C198.203 27.6668 198.075 28.1664 198.075 28.6079C198.075 29.003 198.18 29.3109 198.389 29.5317C198.61 29.7524 198.906 29.8628 199.278 29.8628C200.231 29.8628 201.271 29.3574 202.398 28.3465C203.525 27.3356 204.652 25.8193 205.779 23.7976ZM216.863 12.8697C216.863 12.2539 217.038 11.824 217.386 11.58C217.735 11.3244 218.31 11.1965 219.112 11.1965C219.402 11.1965 219.646 11.2256 219.844 11.2837C220.053 11.3302 220.227 11.4231 220.367 11.5626C220.518 11.702 220.634 11.8879 220.715 12.1203C220.808 12.341 220.884 12.6257 220.942 12.9743C221.081 14.0549 221.232 15.1703 221.395 16.3206C221.569 17.4709 221.749 18.627 221.935 19.789C222.005 20.3118 222.278 20.5733 222.754 20.5733C222.882 20.5733 223.091 20.5616 223.382 20.5384C223.684 20.5035 224.038 20.4687 224.445 20.4338C224.852 20.3873 225.287 20.3409 225.752 20.2944C226.229 20.2479 226.699 20.2072 227.164 20.1724C227.64 20.1259 228.088 20.0911 228.506 20.0678C228.936 20.033 229.313 20.0155 229.639 20.0155C229.894 20.0155 230.098 20.0678 230.249 20.1724C230.4 20.2653 230.516 20.3932 230.597 20.5558C230.69 20.7069 230.748 20.8812 230.772 21.0787C230.807 21.2646 230.824 21.4563 230.824 21.6538C230.824 21.8281 230.789 22.0082 230.719 22.1941C230.661 22.38 230.574 22.5485 230.458 22.6996C230.353 22.839 230.22 22.9552 230.057 23.0481C229.894 23.1411 229.709 23.1876 229.499 23.1876C228.489 23.1876 227.466 23.2224 226.432 23.2921C225.409 23.3502 224.387 23.4316 223.364 23.5362C222.842 23.6059 222.58 23.8673 222.58 24.3204C222.58 24.3553 222.586 24.4018 222.598 24.4599C222.609 24.5064 222.615 24.547 222.615 24.5819C222.754 25.5928 222.882 26.5397 222.998 27.4228C223.126 28.3058 223.231 29.0959 223.312 29.7931C223.405 30.4786 223.475 31.0538 223.521 31.5186C223.579 31.9717 223.608 32.2738 223.608 32.4248C223.608 32.8431 223.568 33.1917 223.486 33.4706C223.405 33.7611 223.271 33.9934 223.086 34.1677C222.9 34.3536 222.65 34.4814 222.336 34.5512C222.034 34.6325 221.651 34.6732 221.186 34.6732C220.744 34.6732 220.419 34.5686 220.21 34.3594C220.001 34.1503 219.884 33.8308 219.861 33.4009C219.792 32.0298 219.681 30.6529 219.53 29.2702C219.379 27.8759 219.205 26.4874 219.007 25.1047C218.903 24.6051 218.641 24.3553 218.223 24.3553C218.188 24.3553 218.147 24.3611 218.101 24.3727C218.054 24.3844 218.014 24.3902 217.979 24.3902C217.259 24.5528 216.579 24.7155 215.94 24.8782C215.301 25.0408 214.702 25.2151 214.145 25.401C213.831 25.5056 213.552 25.5811 213.308 25.6276C213.064 25.6625 212.843 25.6799 212.646 25.6799C212.378 25.6799 212.181 25.5637 212.053 25.3313C211.925 25.0873 211.861 24.7852 211.861 24.425C211.861 24.2972 211.873 24.152 211.896 23.9893C211.92 23.815 211.966 23.6465 212.036 23.4839C212.094 23.3096 212.187 23.1527 212.315 23.0133C212.431 22.8622 212.593 22.7402 212.803 22.6473C213.291 22.4498 213.941 22.2464 214.755 22.0373C215.568 21.8165 216.486 21.6132 217.508 21.4273C217.741 21.3692 217.921 21.2762 218.049 21.1484C218.188 21.009 218.258 20.8056 218.258 20.5384C218.258 20.4803 218.258 20.4222 218.258 20.3641C218.258 20.2944 218.246 20.2247 218.223 20.155C218.037 19.086 217.857 18.1158 217.683 17.2443C217.52 16.3613 217.375 15.606 217.247 14.9786C217.131 14.3512 217.038 13.8573 216.968 13.4972C216.898 13.137 216.863 12.9278 216.863 12.8697ZM244.645 29.1831C244.982 28.8926 245.313 28.7474 245.638 28.7474C245.824 28.7474 245.993 28.7938 246.144 28.8868C246.295 28.9798 246.463 29.125 246.649 29.3225C246.824 29.5898 246.946 29.8105 247.015 29.9848C247.097 30.1475 247.137 30.3102 247.137 30.4728C247.137 30.8214 246.963 31.1525 246.614 31.4663C246.057 31.931 245.453 32.3493 244.802 32.7211C244.151 33.0813 243.471 33.3892 242.763 33.6449C242.054 33.9005 241.322 34.0922 240.567 34.22C239.811 34.3594 239.062 34.4292 238.318 34.4292C237.377 34.4292 236.494 34.3072 235.669 34.0632C234.844 33.8308 234.106 33.4938 233.456 33.0523C232.817 32.6108 232.276 32.0821 231.835 31.4663C231.393 30.8388 231.08 30.1359 230.894 29.3574C230.789 29.032 230.69 28.8229 230.597 28.7299C230.516 28.6254 230.377 28.5731 230.179 28.5731C229.749 28.5731 229.418 28.4685 229.186 28.2594C228.953 28.0502 228.837 27.7481 228.837 27.3531C228.837 27.1904 228.849 27.0858 228.872 27.0393L228.907 26.6908C228.965 26.2725 229.075 25.9704 229.238 25.7845C229.412 25.5986 229.679 25.5056 230.04 25.5056H230.301C230.789 25.5056 231.132 25.279 231.329 24.8259C231.69 24.0242 232.149 23.2921 232.706 22.6299C233.264 21.9676 233.891 21.404 234.589 20.9393C235.286 20.4629 236.029 20.0969 236.819 19.8412C237.621 19.574 238.435 19.4404 239.26 19.4404C240.119 19.4404 240.921 19.5682 241.665 19.8238C242.42 20.0678 243.076 20.4106 243.634 20.8521C244.192 21.2936 244.628 21.8107 244.941 22.4033C245.267 22.9959 245.429 23.6349 245.429 24.3204C245.429 24.7968 245.336 25.2326 245.15 25.6276C244.965 26.0227 244.697 26.3712 244.349 26.6733C244 26.9638 243.576 27.202 243.076 27.3879C242.588 27.5738 242.031 27.6958 241.403 27.7539L235.355 28.3639C235.123 28.3639 234.931 28.422 234.78 28.5382C234.641 28.6544 234.571 28.8113 234.571 29.0088C234.571 29.3109 234.682 29.6014 234.902 29.8802C235.135 30.1591 235.437 30.4089 235.809 30.6297C236.192 30.8388 236.628 31.0073 237.116 31.1351C237.615 31.2629 238.127 31.3268 238.65 31.3268C239.149 31.3268 239.66 31.2804 240.183 31.1874C240.718 31.0828 241.241 30.9376 241.752 30.7517C242.275 30.5658 242.78 30.345 243.268 30.0894C243.756 29.8221 244.215 29.52 244.645 29.1831ZM240.758 24.6865C240.933 24.6516 241.084 24.5703 241.212 24.4425C241.339 24.303 241.403 24.1345 241.403 23.937C241.403 23.7627 241.339 23.6001 241.212 23.449C241.084 23.298 240.909 23.1643 240.689 23.0481C240.468 22.9203 240.212 22.8216 239.922 22.7519C239.631 22.6821 239.323 22.6473 238.998 22.6473C238.522 22.6473 238.034 22.717 237.534 22.8564C237.034 22.9959 236.581 23.1818 236.175 23.4142C235.768 23.6349 235.437 23.8847 235.181 24.1636C234.926 24.4308 234.798 24.6981 234.798 24.9653C234.798 25.2326 234.96 25.3662 235.286 25.3662C235.483 25.3662 235.803 25.3429 236.244 25.2965C236.686 25.25 237.174 25.1977 237.708 25.1396C238.243 25.0699 238.783 24.9944 239.329 24.913C239.875 24.8317 240.352 24.7562 240.758 24.6865Z" fill="white"/>
<path d="M30.9284 8.18752C33.1703 8.18752 34.9892 6.35386 34.9892 4.09376C34.9892 1.83366 33.1703 0 30.9284 0C28.6865 0 26.8676 1.83366 26.8676 4.09376C26.8676 6.35386 28.6865 8.18752 30.9284 8.18752ZM23.5682 25.4575L21.4532 30.7794L16.4279 35.8454C15.3704 36.9115 15.3704 38.6428 16.4279 39.7089C17.4854 40.775 19.2028 40.775 20.2603 39.7089L25.4801 34.4467C25.8693 34.0544 26.1739 33.5853 26.3769 33.0736L27.6036 29.9862L24.1604 26.1995C23.9489 25.9692 23.7543 25.7219 23.5682 25.466V25.4575Z" fill="white"/>
<path d="M17.4601 21.3211C18.1876 21.6281 18.9829 21.5855 19.6512 21.2614C19.9389 21.1249 20.2096 20.9288 20.438 20.6899C20.7003 20.417 20.9033 20.0929 21.0387 19.7177C21.0471 19.6921 21.0556 19.658 21.064 19.6324L21.2755 18.9927C21.7578 17.5343 22.8237 16.3574 24.2112 15.7348L24.888 15.4363C24.9726 15.4022 25.0487 15.368 25.1333 15.3339L23.7036 20.7496C23.2298 22.5492 23.6951 24.4681 24.9472 25.8413L30.9284 32.4169L32.7896 39.9306C33.1534 41.389 34.6254 42.2845 36.0721 41.9178C37.5187 41.5511 38.407 40.0671 38.0432 38.6087L36.0974 30.7538C35.9367 30.0885 35.6068 29.483 35.1499 28.9798L30.9622 24.3743L32.595 18.788L33.4072 20.7496C33.7794 21.6537 34.4647 22.3957 35.3361 22.8392L37.5949 23.9735C38.9315 24.6473 40.5559 24.1014 41.2242 22.7539C41.8925 21.4064 41.3511 19.7688 40.0144 19.0951L38.204 18.1825L36.9096 15.044C35.4629 11.5387 32.062 9.253 28.2889 9.253C26.36 9.253 24.4565 9.66237 22.6968 10.447L22.02 10.7455C19.9716 11.6678 17.4586 16.0502 16.7844 18.788C16.5092 20.1644 16.5092 20.7973 17.4601 21.3211Z" fill="white"/>
<path d="M18.2241 20.6268L18.9836 21.0438L8.76555 39.6514L8.00606 39.2344L18.2241 20.6268Z" fill="white"/>
<path d="M9.18276 38.8919L8.76555 39.6514L0.791016 35.2723L1.20808 34.5128L9.18276 38.8919Z" fill="white"/>
<path d="M14.7906 25.9321C14.7906 25.9321 9.9355 22.7568 7.90436 22.8244C5.87322 22.8921 0.461937 32.7421 1.73251 33.9509C3.00309 35.1597 8.22833 37.7485 8.22833 37.7485L14.7906 25.9321Z" fill="white"/>
<path d="M8.22856 40.5968C8.22856 41.296 7.6618 41.8627 6.96267 41.8627C6.26354 41.8627 5.69678 41.296 5.69678 40.5968C5.69678 39.8977 6.26354 39.3309 6.96267 39.3309C7.6618 39.3309 8.22856 39.8977 8.22856 40.5968Z" fill="white"/>
<path d="M2.53178 37.4321C2.53178 38.1312 1.96502 38.698 1.26589 38.698C0.566758 38.698 0 38.1312 0 37.4321C0 36.733 0.566758 36.1662 1.26589 36.1662C1.96502 36.1662 2.53178 36.733 2.53178 37.4321Z" fill="white"/>
</svg>
